:SAMPLES-PER-SECOND 30
:FULLY-SPECIFIED
:DEGREES
107
root  12.9864 40.8674 -7.58167 -28.3688 -61.9604 24.3452
RightUpLeg  3.83544 -10.8134 -29.956
RightLeg  19.7746 -26.7127 -10.4069
RightFoot  20.2562 -6.55473 23.4079
RightToes  -5.28226e-011 1.30204e-014 -6.03759e-014
Spine  25.9582 0.142056 7.21769
Spine1  -11.247 1.07607 -5.56911
HEad  -9.60344 -26.3015 -7.30339
LeftShoulder1  0.3211 2.22605 -19.1158
LeftArm  3.53231 -5.06661 -34.1955
LeftForeArm  -8.47027 3.49277 -18.062
LeftHand  0.118344 5.90224 26.1309
RightShoulder  2.1137 3.54184 24.0064
RightArm  -36.3638 -60.6962 40.315
RightForeArm  -42.7242 26.6822 7.67049
RightHand  -0.856149 -0.710887 -21.1503
LeftUpLeg  -41.6724 12.6754 19.2101
LeftLeg  10.9714 15.484 5.46923
LeftFoot  17.5491 2.05686 -8.32961
LeftToes  -2.75829e-010 5.07641e-011 -5.51782e-011
108
root  13.2394 41.0379 -7.42144 -26.6786 -57.8255 20.5696
RightUpLeg  7.18015 -11.693 -30.9651
RightLeg  20.0369 -29.2328 -11.5041
RightFoot  24.6076 -7.09405 22.1888
RightToes  -5.28226e-011 1.30204e-014 -6.03759e-014
Spine  26.8916 1.48763 16.1406
Spine1  -7.74053 5.3944 -15.67
HEad  -14.4105 -42.2394 -0.673621
LeftShoulder1  0.0530168 3.36319 -16.2472
LeftArm  -2.83864 -25.2643 -44.1769
LeftForeArm  -0.669656 7.38209 -16.2097
LeftHand  0.592333 7.79241 28.2844
RightShoulder  2.30451 3.4099 27.3804
RightArm  -27.029 -62.4178 47.9118
RightForeArm  -51.0303 12.3439 6.88517
RightHand  -0.871478 -0.638031 -21.1933
LeftUpLeg  -48.0822 8.93797 16.1548
LeftLeg  22.0894 10.1541 4.47971
LeftFoot  20.3539 4.29339 -15.4531
LeftToes  -2.75829e-010 5.07641e-011 -5.51782e-011
109
root  13.5591 41.0065 -7.21239 -30.158 -58.5013 22.9855
RightUpLeg  6.49141 -12.3289 -32.7741
RightLeg  21.148 -29.0627 -11.9957
RightFoot  26.2294 -6.54397 19.6198
RightToes  -5.28226e-011 1.30204e-014 -6.03759e-014
Spine  29.1574 3.48535 18.6478
Spine1  -5.82366 9.03298 -18.4654
HEad  -18.1624 -47.7277 3.57423
LeftShoulder1  -0.640212 7.86285 -7.83715
LeftArm  -2.05926 -27.5044 -61.186
LeftForeArm  -12.9561 -3.36518 -12.1516
LeftHand  0.436484 7.14642 28.2099
RightShoulder  1.78631 2.42593 23.9169
RightArm  -21.5075 -59.7308 46.4956
RightForeArm  -52.0912 1.7412 8.84719
RightHand  -0.762312 -1.36897 -21.7909
LeftUpLeg  -49.9855 8.92421 13.3715
LeftLeg  30.1635 -0.705004 -0.0651588
LeftFoot  23.1983 6.74272 -21.9713
LeftToes  -2.75829e-010 5.07641e-011 -5.51782e-011
110
root  13.8749 40.7909 -6.91283 -38.0125 -63.1936 31.2996
RightUpLeg  1.57113 -12.4952 -34.3102
RightLeg  23.1454 -26.663 -12.0366
RightFoot  25.4847 -5.87935 18.0857
RightToes  -5.28226e-011 1.30204e-014 -6.03759e-014
Spine  31.2224 4.80581 15.8453
Spine1  -6.35859 9.84269 -15.7893
HEad  -18.9985 -43.2681 3.11493
LeftShoulder1  -0.861873 11.8358 -1.53517
LeftArm  6.95413 -14.146 -70.8943
LeftForeArm  -34.5991 -29.5508 -7.39514
LeftHand  0.158468 6.05813 27.2935
RightShoulder  1.1666 1.13121 18.8034
RightArm  -23.6199 -54.7223 36.595
RightForeArm  -46.1374 -0.403484 4.90252
RightHand  -0.680339 -1.64244 -20.9214
LeftUpLeg  -47.7287 10.5343 14.2324
LeftLeg  36.533 -4.84648 -3.39033
LeftFoot  24.6185 8.50082 -26.2873
LeftToes  -2.75829e-010 5.07641e-011 -5.51782e-011
111
root  14.0404 40.3455 -6.49277 -52.0905 -68.9451 46.5875
RightUpLeg  -5.31131 -12.6865 -34.9463
RightLeg  25.5746 -22.4158 -11.4396
RightFoot  22.9893 -5.5338 18.321
RightToes  -5.28226e-011 1.30204e-014 -6.03759e-014
Spine  30.5428 3.75532 10.6326
Spine1  -6.7764 7.14326 -11.8356
HEad  -17.4517 -30.7699 -1.98791
LeftShoulder1  -0.522341 8.14519 -4.48496
LeftArm  -13.5129 6.31547 -60.0341
LeftForeArm  -23.3397 -50.3892 -15.0531
LeftHand  0.205169 6.29889 25.9878
RightShoulder  0.818026 0.0540165 16.4831
RightArm  -23.289 -43.6146 25.9324
RightForeArm  -42.0549 10.4853 4.35318
RightHand  -0.904577 -0.50718 -21.3606
LeftUpLeg  -40.8555 12.9064 17.3397
LeftLeg  39.554 -2.82302 -2.13367
LeftFoot  26.1205 9.69828 -28.6053
LeftToes  -2.75829e-010 5.07641e-011 -5.51782e-011
112
root  13.9989 39.7109 -6.17634 -76.632 -73.1049 71.6308
RightUpLeg  -11.372 -11.9061 -34.3822
RightLeg  27.512 -17.2458 -9.72377
RightFoot  18.3052 -4.79663 18.439
RightToes  -5.28226e-011 1.30204e-014 -6.03759e-014
Spine  28.6237 0.221668 4.84176
Spine1  -6.52917 2.26708 -10.224
HEad  -15.7068 -11.9852 -8.82076
LeftShoulder1  0.278873 2.01795 -12.9469
LeftArm  -19.157 26.1276 -40.4197
LeftForeArm  -22.3519 -57.8589 -19.7093
LeftHand  0.377738 7.0941 25.6753
RightShoulder  0.509491 -1.16429 14.8833
RightArm  -17.5957 -23.6261 26.7175
RightForeArm  -41.0227 18.8667 6.92762
RightHand  -1.16777 0.471662 -23.0039
LeftUpLeg  -29.0724 13.9298 21.7782
LeftLeg  39.0086 -0.382375 0.0361507
LeftFoot  28.45 9.37263 -26.0607
LeftToes  -2.75829e-010 5.07641e-011 -5.51782e-011
113
root  13.7813 38.8102 -6.00287 -106.79 -74.3336 101.038
RightUpLeg  -15.3368 -10.4238 -32.781
RightLeg  29.8958 -11.5144 -7.2774
RightFoot  10.5641 -3.46247 18.1468
RightToes  -5.28226e-011 1.30204e-014 -6.03759e-014
Spine  27.888 -3.33828 -1.68181
Spine1  -7.62657 -3.01041 -6.69112
HEad  -15.5495 9.38599 -15.7178
LeftShoulder1  0.971079 -0.325924 -19.0732
LeftArm  -11.2692 39.9895 -24.2626
LeftForeArm  -33.8205 -48.7593 -14.8939
LeftHand  0.277679 6.75523 23.27
RightShoulder  0.127084 -2.79941 11.8586
RightArm  -20.4594 -6.79702 39.2211
RightForeArm  -31.7719 26.3476 7.02789
RightHand  -1.27817 0.496603 -25.0398
LeftUpLeg  -15.9695 11.6017 25.9641
LeftLeg  36.9958 -1.29812 -0.661191
LeftFoot  31.234 8.16204 -21.2691
LeftToes  -2.75829e-010 5.07641e-011 -5.51782e-011
114
root  13.6172 37.5636 -5.7905 -118.47 -75.4777 112.217
RightUpLeg  -17.5036 -11.0318 -31.2664
RightLeg  34.7681 -7.3586 -5.72547
RightFoot  1.44167 -2.21097 19.8278
RightToes  -5.28226e-011 1.30204e-014 -6.03759e-014
Spine  27.6477 -4.67456 -6.61525
Spine1  -8.50124 -6.30462 2.49717
HEad  -15.4649 22.2927 -20.2069
LeftShoulder1  1.30682 -1.1653 -21.6918
LeftArm  1.05429 39.4274 -18.1986
LeftForeArm  -41.9932 -28.4378 -9.82636
LeftHand  -0.0842598 4.94758 18.9148
RightShoulder  0.124652 -2.78218 10.7817
RightArm  -33.0778 -11.7017 48.8957
RightForeArm  -16.4427 48.1025 15.316
RightHand  -1.1562 -0.367239 -26.4603
LeftUpLeg  -10.0816 5.52111 27.4145
LeftLeg  36.4445 -4.80564 -3.4832
LeftFoot  33.8269 8.0176 -19.6422
LeftToes  -2.75829e-010 5.07641e-011 -5.51782e-011
115
root  13.7215 36.1752 -5.4957 -92.8903 -78.7022 87.2318
RightUpLeg  -17.8408 -16.1636 -31.2123
RightLeg  41.7972 -5.82491 -5.86451
RightFoot  -5.70037 -1.22459 23.6564
RightToes  -5.28226e-011 1.30204e-014 -6.03759e-014
Spine  26.7471 -4.71486 -5.54776
Spine1  -7.68243 -6.81417 8.89003
HEad  -13.3268 18.9232 -18.5087
LeftShoulder1  1.20475 -0.835126 -21.4168
LeftArm  -1.25327 21.1905 -19.537
LeftForeArm  -29.9052 -4.96243 -13.1564
LeftHand  -0.100464 4.79264 19.5412
RightShoulder  0.680284 -0.402794 14.5454
RightArm  -41.1933 -35.3208 47.2594
RightForeArm  -6.41225 71.2725 35.9949
RightHand  -0.85088 -1.80613 -27.2357
LeftUpLeg  -15.3155 -2.1808 26.6108
LeftLeg  39.0705 -5.69631 -4.55934
LeftFoot  34.7135 8.3637 -20.0597
LeftToes  -2.75829e-010 5.07641e-011 -5.51782e-011
116
root  14.0553 34.7973 -5.068 -44.3198 -77.1069 38.7337
RightUpLeg  -16.3626 -23.1793 -33.2251
RightLeg  49.2498 -4.95396 -6.47522
RightFoot  -9.64824 -0.469485 26.1765
RightToes  -5.28226e-011 1.30204e-014 -6.03759e-014
Spine  26.1921 -4.86854 2.45059
Spine1  -6.86472 -4.99969 4.3314
HEad  -12.5136 3.98708 -12.9546
LeftShoulder1  0.757848 0.655592 -20.0995
LeftArm  -10.3632 -2.88526 -23.351
LeftForeArm  -19.2581 5.45486 -13.5317
LeftHand  0.273451 6.74074 24.0062
RightShoulder  1.65851 2.29939 22.4712
RightArm  -43.8496 -56.6114 40.8895
RightForeArm  -7.09802 72.2578 43.7633
RightHand  -0.534021 -3.07291 -26.0191
LeftUpLeg  -24.5926 -9.07132 24.9124
LeftLeg  44.8726 0.446219 1.10432
LeftFoot  31.478 7.41373 -19.2121
LeftToes  -2.75829e-010 5.07641e-011 -5.51782e-011
117
root  14.5485 33.4147 -4.39138 -33.9622 -73.7629 26.3241
RightUpLeg  -15.8554 -24.9216 -36.6393
RightLeg  55.8878 -3.77499 -6.39999
RightFoot  -11.4953 -0.0455801 25.6826
RightToes  -5.28226e-011 1.30204e-014 -6.03759e-014
Spine  27.995 -4.32196 12.3121
Spine1  -5.11936 -0.548042 -8.37554
HEad  -14.6559 -12.4276 -7.55784
LeftShoulder1  0.171364 2.827 -15.08
LeftArm  -6.93099 -16.8493 -34.3063
LeftForeArm  -27.784 -6.61864 -12.0225
LeftHand  0.41331 7.15146 26.921
RightShoulder  2.35306 3.64885 27.043
RightArm  -35.8458 -63.8511 38.2449
RightForeArm  -27.487 55.7324 18.946
RightHand  -0.608384 -2.14225 -21.6292
LeftUpLeg  -28.1419 -12.7346 21.8123
LeftLeg  53.6318 8.2178 12.305
LeftFoot  21.1253 5.56881 -19.5171
LeftToes  -2.75829e-010 5.07641e-011 -5.51782e-011
118
root  15.0577 32.0317 -3.47388 -50.3384 -76.5029 39.8686
RightUpLeg  -19.9595 -19.6668 -38.9439
RightLeg  61.3765 -2.67331 -5.83834
RightFoot  -12.0678 0.07524 24.385
RightToes  -5.28226e-011 1.30204e-014 -6.03759e-014
Spine  32.9909 -1.84455 18.546
Spine1  -3.44665 6.13411 -18.6782
HEad  -17.2816 -23.9345 -5.03144
LeftShoulder1  -0.413587 5.80766 -9.80843
LeftArm  3.5003 -18.1094 -50.2021
LeftForeArm  -41.8794 -30.9749 -7.6738
LeftHand  0.517131 7.52713 27.5517
RightShoulder  2.32834 3.87712 25.5014
RightArm  -18.5338 -59.4665 31.7591
RightForeArm  -34.3616 33.0523 9.26405
RightHand  -1.06163 0.0479905 -22.5478
LeftUpLeg  -24.9529 -11.2773 19.2522
LeftLeg  61.7062 9.34565 18.4642
LeftFoot  8.05399 4.28582 -25.3595
LeftToes  -2.75829e-010 5.07641e-011 -5.51782e-011
119
root  15.3495 30.7829 -2.62632 -83.7074 -80.3178 72.4652
RightUpLeg  -27.6282 -13.2924 -38.8181
RightLeg  65.6594 -1.83444 -5.08011
RightFoot  -11.3634 -0.0740054 24.16
RightToes  -5.28226e-011 1.30204e-014 -6.03759e-014
Spine  37.2406 0.876866 18.818
Spine1  -3.79663 10.2341 -20.8484
HEad  -18.0201 -24.5622 -7.74726
LeftShoulder1  -0.370612 5.56197 -11.1469
LeftArm  -15.4432 -4.8766 -56.8668
LeftForeArm  -23.0162 -54.5114 -18.9184
LeftHand  0.915073 8.89643 29.5545
RightShoulder  1.83946 2.9419 22.2604
RightArm  -9.46473 -44.5178 22.1422
RightForeArm  -39.8882 12.5977 7.58413
RightHand  -0.951766 -1.01946 -25.0475
LeftUpLeg  -20.355 -5.5052 21.0487
LeftLeg  64.77 4.60227 11.2583
LeftFoot  -4.62672 2.10994 -34.7138
LeftToes  -2.75829e-010 5.07641e-011 -5.51782e-011
120
root  15.4185 29.6658 -2.03085 -115.63 -82.0872 105.692
RightUpLeg  -34.379 -10.3981 -36.9191
RightLeg  69.1518 -1.0685 -3.88106
RightFoot  -10.6621 -0.222021 24.7683
RightToes  -5.28226e-011 1.30204e-014 -6.03759e-014
Spine  37.8797 1.33222 12.6973
Spine1  -6.42851 7.50227 -14.2732
HEad  -18.5438 -11.2335 -14.1324
LeftShoulder1  0.123625 2.92461 -14.4804
LeftArm  -30.2912 19.7821 -56.0622
LeftForeArm  1.92143 -74.6453 -49.9074
LeftHand  1.25164 9.80859 31.9344
RightShoulder  1.12078 0.881545 19.1565
RightArm  -21.077 -20.1827 17.9158
RightForeArm  -34.1841 2.14269 6.43865
RightHand  -0.812015 -1.76018 -25.5887
LeftUpLeg  -17.8051 1.59711 27.6332
LeftLeg  65.5246 -2.52045 -5.35513
LeftFoot  -17.3893 -1.93686 -38.7248
LeftToes  -2.75829e-010 5.07641e-011 -5.51782e-011
